<?xml version="1.0" standalone="no"?>
<!DOCTYPE svg PUBLIC "-//W3C//DTD SVG 20010904//EN"
 "http://www.w3.org/TR/2001/REC-SVG-20010904/DTD/svg10.dtd">
<svg version="1.0" xmlns="http://www.w3.org/2000/svg"
 width="500.000000pt" height="500.000000pt" viewBox="0 0 500.000000 500.000000"
 preserveAspectRatio="xMidYMid meet">
<metadata>
Created by potrace 1.16, written by Peter Selinger 2001-2019
</metadata>
<g transform="translate(0.000000,500.000000) scale(0.100000,-0.100000)"
fill="#000000" stroke="none">
<path d="M2443 4206 c-40 -12 -42 -22 -8 -30 14 -4 28 -13 32 -22 7 -18 -35
-57 -54 -49 -9 3 -11 0 -6 -7 10 -17 12 -48 2 -42 -15 9 -19 -14 -8 -45 9 -25
8 -34 -5 -47 -21 -20 -20 -27 4 -42 11 -7 20 -20 20 -30 -1 -18 -8 -11 -66 63
-18 23 -22 25 -18 9 3 -12 -1 -26 -10 -33 -18 -15 -13 -24 71 -135 58 -74 69
-115 31 -111 -37 4 -38 4 -32 20 4 8 11 12 18 8 6 -4 5 1 -3 11 -22 27 -38 3
-23 -36 6 -17 10 -33 9 -34 -2 -2 -15 3 -29 10 -23 12 -26 12 -21 0 3 -8 8
-14 12 -15 3 -1 18 -2 32 -3 22 -2 89 -43 89 -54 0 -14 -96 11 -128 33 -20 14
-46 25 -58 25 -12 0 -32 9 -45 20 l-24 19 25 2 c14 1 31 1 39 0 8 -2 10 2 5
10 -5 9 -2 10 9 6 14 -5 15 -3 4 13 -6 11 -15 20 -18 20 -3 0 -18 11 -32 25
-16 17 -26 22 -29 13 -3 -8 -14 -6 -40 10 -19 12 -51 23 -71 24 -19 2 -33 6
-30 11 6 10 -1 9 -32 -7 -25 -13 -25 -15 -7 -20 11 -4 26 -13 32 -22 10 -12 8
-18 -11 -34 -12 -12 -28 -19 -35 -16 -9 3 -10 -3 -4 -25 7 -22 5 -29 -5 -29
-10 0 -12 -9 -8 -35 5 -30 3 -35 -14 -35 -22 0 -55 32 -51 49 2 6 -8 17 -21
24 -34 17 -38 37 -9 37 13 0 29 5 35 11 12 12 5 49 -9 49 -6 0 -37 13 -68 29
-38 20 -69 28 -89 26 -17 -2 -33 0 -36 5 -4 6 2 7 12 3 15 -5 16 -3 6 8 -10
10 -16 10 -25 1 -7 -7 -21 -12 -32 -12 -17 0 -15 -3 10 -19 39 -24 51 -41 28
-41 -10 0 -14 -3 -11 -7 4 -3 -2 -12 -13 -20 -11 -8 -20 -23 -20 -34 0 -10 -5
-19 -11 -19 -8 0 -10 -12 -6 -36 4 -24 1 -44 -9 -59 -14 -21 -13 -24 4 -37 10
-7 21 -22 25 -33 8 -21 -26 11 -71 70 -13 17 -20 24 -17 17 4 -7 1 -26 -5 -43
-12 -27 -9 -33 42 -101 70 -95 68 -90 46 -113 -13 -13 -17 -15 -13 -4 3 9 -3
23 -17 35 -12 10 -17 12 -11 3 7 -8 10 -25 6 -37 -4 -17 -1 -22 13 -23 11 0
14 -3 7 -6 -18 -7 -16 -23 5 -46 12 -14 14 -21 5 -24 -10 -4 -10 -10 1 -31 7
-15 17 -52 21 -82 4 -30 13 -71 20 -91 7 -20 16 -63 20 -95 4 -33 29 -153 57
-269 27 -115 56 -242 64 -282 8 -40 23 -92 34 -115 11 -24 20 -59 20 -79 0
-20 6 -42 14 -48 9 -7 17 -43 21 -94 3 -45 17 -129 31 -186 13 -57 22 -106 20
-108 -24 -24 -223 -23 -238 1 -4 6 -8 34 -8 61 0 28 -6 60 -14 71 -8 11 -19
46 -25 79 -6 32 -16 62 -21 65 -6 3 -71 7 -145 8 l-134 3 -16 -30 c-22 -43
-47 -155 -35 -159 6 -2 10 -8 10 -13 0 -6 -4 -7 -10 -4 -6 3 -11 -6 -12 -22
-1 -15 -2 -36 -2 -46 -2 -22 -31 -41 -52 -33 -8 3 -24 1 -36 -4 l-23 -9 25 -2
c14 -1 31 -1 38 0 6 1 12 -3 12 -9 0 -6 -4 -8 -10 -5 -5 3 -10 0 -10 -7 0 -10
-2 -10 -9 1 -8 12 -12 12 -25 -2 -18 -18 -22 -42 -5 -31 7 4 9 -1 7 -12 -2
-11 -10 -18 -17 -16 -9 2 -12 -4 -8 -18 4 -14 -4 -32 -24 -55 -29 -33 -41 -62
-40 -99 0 -18 0 -18 -15 0 -15 18 -15 18 -9 -6 4 -14 7 -35 7 -47 0 -30 4 -29
35 7 26 32 57 41 46 15 -3 -10 0 -15 8 -13 7 2 14 -3 15 -9 1 -7 3 -16 4 -20
1 -5 2 -10 2 -13 0 -3 9 -7 20 -7 11 -1 26 -10 32 -19 10 -13 22 -16 49 -11
30 5 38 2 54 -19 18 -24 18 -24 33 -5 8 11 28 22 43 25 43 7 18 -17 -52 -51
-45 -22 -51 -29 -33 -31 12 -2 20 -7 18 -11 -3 -4 3 -12 13 -18 14 -9 41 1
141 52 118 59 169 72 156 38 -3 -8 -1 -11 4 -8 15 9 12 -7 -5 -29 -8 -11 -15
-15 -15 -8 0 6 -7 9 -17 5 -11 -4 -14 -3 -9 6 5 7 -10 3 -33 -8 -23 -12 -41
-24 -41 -26 0 -3 14 1 30 10 17 9 30 11 30 5 0 -14 63 -13 78 2 15 15 16 3 1
-23 -5 -11 -14 -17 -18 -15 -4 3 -8 -1 -8 -10 0 -24 41 9 45 36 4 23 75 100
93 100 5 0 4 -10 -3 -22 -7 -13 -11 -27 -10 -31 3 -10 -50 -87 -77 -111 -11
-11 -21 -27 -21 -36 0 -10 -36 -56 -80 -104 -44 -47 -80 -92 -80 -100 0 -8 16
-20 35 -27 19 -7 35 -19 35 -27 0 -10 3 -10 16 2 8 9 20 16 26 16 6 0 43 29
83 65 40 36 76 65 81 65 4 0 16 8 26 17 18 16 19 16 24 -5 6 -21 54 -60 54
-44 0 5 15 13 33 18 22 7 33 17 35 32 2 12 16 29 33 37 16 9 29 20 29 24 0 5
19 29 41 53 l42 43 -39 -50 c-21 -27 -32 -45 -24 -40 8 5 27 8 41 7 34 -3 72
32 118 106 42 67 78 97 98 80 8 -6 12 -17 9 -24 -7 -19 14 -29 25 -13 6 10 9
6 9 -14 0 -16 -3 -26 -8 -23 -11 6 -47 -22 -38 -31 4 -4 12 1 18 11 8 14 12
15 18 5 11 -16 25 34 16 56 -3 8 -3 22 0 30 5 12 9 12 29 -1 22 -14 22 -16 9
-61 -8 -26 -12 -54 -9 -63 3 -9 -8 -61 -25 -114 -16 -54 -27 -103 -24 -108 4
-6 19 -7 35 -4 15 3 31 1 34 -5 10 -15 43 33 67 98 12 32 25 62 28 66 4 5 26
-1 49 -13 23 -11 58 -21 78 -22 32 -1 34 -3 17 -15 -10 -7 -13 -13 -7 -13 7 0
18 7 27 15 8 9 19 15 23 14 26 -4 24 4 -4 21 -32 19 -44 40 -22 40 5 0 7 5 4
10 -3 6 1 10 9 10 18 0 40 36 31 50 -3 6 1 10 10 10 12 0 15 6 10 23 -16 54
-17 63 -6 47 6 -8 11 -10 12 -5 0 6 2 19 4 30 4 22 -12 49 -35 57 -9 3 -10 7
-3 11 7 4 29 -15 53 -45 25 -31 40 -44 36 -30 -4 12 -3 22 2 22 21 0 21 32 1
60 -21 28 -19 50 5 50 8 0 39 11 71 25 l57 26 34 -20 c19 -11 34 -17 34 -13 0
4 9 8 19 8 11 0 18 -4 15 -7 -9 -14 11 -16 40 -4 l30 13 -32 16 c-36 18 -37
22 -19 39 84 80 128 102 155 75 16 -16 15 -29 -1 -22 -17 6 -51 -31 -44 -48 2
-7 22 -19 43 -27 22 -8 56 -25 77 -38 20 -13 37 -20 37 -15 0 4 9 8 19 8 11 0
18 -4 15 -7 -9 -14 11 -16 40 -4 l30 13 -32 16 c-18 9 -32 20 -32 24 0 4 14
18 30 31 17 13 30 32 30 42 0 11 5 19 11 19 10 0 7 49 -5 68 -3 5 4 18 15 28
20 18 21 18 37 -2 15 -18 25 -20 100 -15 101 7 112 17 112 102 0 62 10 78 33
55 11 -11 21 -12 50 -3 36 12 50 27 24 27 -7 0 -22 7 -33 15 -16 13 -17 16 -4
25 8 5 11 10 6 10 -6 0 -1 6 10 14 13 10 23 11 31 4 9 -7 13 -7 13 1 0 6 -4
11 -9 11 -14 0 -9 39 6 44 8 4 9 14 3 36 -7 24 -5 38 5 54 13 20 13 24 -5 39
-11 9 -20 22 -20 29 1 13 24 -10 68 -67 13 -17 20 -24 17 -17 -4 7 -2 26 5 42
11 26 8 33 -29 87 -22 32 -49 69 -60 83 -25 30 -25 39 -5 65 16 20 16 20 10
-2 -5 -15 0 -28 16 -45 13 -13 36 -39 51 -58 24 -29 23 -27 -4 15 -32 48 -49
135 -28 135 5 0 9 -6 9 -14 0 -8 6 -16 13 -19 8 -2 9 -8 2 -18 -5 -8 -2 -7 7
4 12 13 25 16 40 12 17 -5 19 -4 9 4 -12 8 -12 12 -2 25 12 14 16 14 43 0 17
-9 51 -30 77 -48 70 -50 79 -51 87 -11 3 19 11 35 16 35 18 0 -32 59 -81 94
-46 34 -49 39 -47 76 1 22 6 43 11 47 4 5 5 3 2 -3 -4 -7 -1 -14 7 -17 10 -4
12 0 9 14 -3 11 -9 21 -13 24 -5 3 -6 14 -3 25 7 25 -5 26 -23 3 -12 -17 -13
-16 -22 8 -6 15 -19 29 -28 33 -16 6 -16 8 -4 16 8 6 10 10 5 10 -6 0 -16 -5
-22 -11 -7 -7 -15 -2 -27 15 -10 16 -22 23 -31 20 -9 -4 -15 0 -15 10 0 10 6
14 18 10 16 -5 16 -5 -1 9 -16 13 -16 22 -2 138 8 68 19 148 25 178 5 29 10
55 10 57 0 2 -10 5 -22 5 -21 1 -21 2 -3 6 21 5 35 21 35 38 0 6 -4 4 -9 -4
-7 -11 -10 -9 -16 8 -4 15 -15 21 -35 21 -16 0 -32 -5 -36 -11 -5 -9 1 -10 22
-5 27 7 28 6 9 -7 -11 -9 -23 -13 -27 -11 -4 3 -5 -2 -1 -11 5 -13 7 -14 14
-3 7 10 9 10 9 0 0 -7 -10 -17 -22 -22 -21 -8 -22 -9 -3 -10 19 -1 19 -2 -2
-10 -23 -9 -27 -23 -37 -130 -8 -72 -13 -104 -52 -310 -9 -47 -22 -123 -29
-170 -17 -108 -33 -163 -51 -173 -8 -5 -12 -13 -9 -18 4 -5 11 -7 16 -4 12 8
12 9 -5 -72 -8 -37 -17 -97 -21 -133 -4 -36 -14 -74 -21 -85 -9 -12 -14 -47
-14 -95 0 -125 -7 -134 -107 -131 -57 1 -59 0 -42 -30 9 -18 8 -19 -9 -10 -32
17 -71 69 -81 109 -5 20 -13 71 -16 112 -4 41 -13 97 -22 123 -8 27 -19 83
-23 125 -4 42 -13 102 -19 132 -6 30 -14 81 -17 113 l-6 58 -29 -30 c-35 -37
-37 -45 -43 -206 -3 -71 -12 -157 -21 -190 -8 -33 -15 -81 -15 -106 0 -72 -21
-162 -43 -187 -19 -20 -29 -22 -122 -22 -65 0 -105 4 -113 12 -7 7 -12 32 -12
57 0 26 -9 89 -20 141 -11 52 -20 115 -20 140 0 25 -9 78 -20 118 -11 39 -20
91 -20 114 0 39 -17 165 -55 403 -8 50 -19 128 -24 175 -15 120 -30 200 -47
237 -8 17 -14 38 -14 47 0 26 42 44 119 49 103 6 116 -7 126 -129 6 -81 30
-220 56 -317 13 -51 33 -203 32 -249 -1 -21 3 -35 8 -32 5 3 9 16 9 30 0 14 6
24 14 24 21 0 24 18 31 190 4 85 13 202 21 259 8 58 14 128 14 156 0 28 5 56
12 63 7 7 33 12 59 12 26 0 50 4 54 9 8 13 117 1 134 -15 8 -7 14 -28 13 -46
-1 -32 10 -93 44 -253 18 -88 20 -95 34 -240 13 -132 32 -179 73 -182 22 -1
27 2 23 13 -3 8 -2 13 2 11 4 -3 8 43 9 101 1 78 11 154 37 282 20 96 36 189
36 207 0 39 -25 66 -57 60 -12 -2 -23 0 -23 5 0 5 -8 7 -18 4 -21 -7 -68 36
-57 53 4 7 -1 10 -13 8 -20 -2 -183 139 -229 199 l-25 34 26 31 c14 17 26 34
26 39 0 4 -15 14 -32 21 -18 7 -38 20 -45 29 -8 10 -12 11 -13 3 0 -7 -6 -13
-14 -13 -8 0 -28 -11 -44 -25 l-29 -24 -95 92 c-52 51 -116 108 -142 127 -26
19 -78 61 -116 93 -44 36 -78 57 -94 57 -26 0 -52 32 -41 50 3 6 -1 10 -9 10
-16 0 -46 26 -46 41 0 6 4 7 10 4 15 -9 50 14 50 33 0 23 -134 87 -179 86 -21
-1 -28 1 -20 7 21 13 7 15 -28 5z"/>
<path d="M1353 3456 c-41 -12 -41 -19 -3 -33 17 -6 30 -19 30 -28 0 -9 -4 -13
-10 -10 -5 3 -10 0 -10 -8 0 -17 -27 -30 -42 -20 -7 4 -8 1 -3 -8 11 -17 14
-50 4 -43 -15 9 -19 -14 -8 -45 9 -25 8 -34 -6 -47 -15 -15 -15 -18 4 -36 25
-23 30 -58 6 -38 -13 11 -15 7 -15 -29 0 -28 4 -41 14 -41 8 0 12 -8 9 -22 -3
-16 5 -33 25 -53 24 -25 28 -34 18 -46 -6 -10 -22 -15 -37 -13 -22 2 -27 -1
-25 -21 0 -13 3 -22 5 -19 2 2 17 -6 32 -17 16 -11 33 -17 39 -14 5 3 7 0 4
-8 -6 -16 22 -31 31 -17 3 5 -1 20 -10 34 -10 15 -12 27 -6 30 5 4 13 1 17 -6
5 -8 12 -3 20 17 7 17 14 23 15 15 6 -54 4 -76 -10 -87 -11 -8 -12 -12 -4 -13
10 0 12 -25 9 -102 -3 -63 -1 -96 5 -87 6 9 9 -3 9 -38 0 -38 -4 -53 -13 -53
-8 0 -21 -8 -30 -18 -17 -19 -23 -43 -9 -41 4 1 16 1 27 -1 l20 -1 -20 -9
c-17 -7 -17 -9 -2 -9 16 -1 25 -31 9 -31 -18 0 1 -59 20 -66 13 -4 17 -11 13
-22 -4 -10 -9 -38 -12 -64 l-6 -47 107 0 c93 1 107 3 116 19 15 29 12 112 -9
208 -10 48 -22 118 -26 156 -9 86 -12 96 -36 96 -24 0 -49 -38 -55 -86 -8 -60
-36 -164 -44 -164 -19 0 -28 32 -28 105 0 47 -5 81 -11 83 -6 2 -11 16 -11 30
0 21 3 23 10 12 6 -9 9 19 9 80 -1 112 -10 175 -26 175 -6 0 -15 3 -19 8 -4 4
2 7 14 7 24 0 45 31 36 54 -3 9 -17 16 -31 16 -19 0 -24 4 -19 16 3 9 6 18 6
21 0 3 6 1 13 -6 11 -8 18 15 39 120 14 72 31 136 37 142 6 6 23 12 36 12 14
1 25 5 25 8 0 4 0 12 0 17 0 6 -6 10 -14 10 -8 0 -22 10 -31 23 -12 14 -19 18
-22 10 -3 -9 -16 -6 -46 11 -26 14 -55 22 -76 21 -21 -2 -29 0 -20 6 21 13 7
15 -28 5z"/>
<path d="M993 2963 c-14 -47 0 -70 86 -132 34 -25 61 -50 61 -57 0 -6 7 -15
16 -18 14 -5 13 -10 -10 -31 l-26 -24 21 -36 c16 -26 27 -35 40 -32 12 3 24
-4 34 -19 8 -13 24 -24 34 -24 11 0 21 -3 23 -7 2 -5 17 -16 34 -25 l30 -17
34 136 c34 132 34 135 15 149 -10 8 -27 12 -37 8 -10 -3 -18 0 -18 7 0 9 -4 8
-15 -1 -8 -7 -15 -8 -15 -3 0 13 -80 66 -88 59 -6 -7 -76 32 -136 76 -52 38
-69 36 -83 -9z"/>
<path d="M1224 2310 c-32 -27 -65 -50 -71 -50 -8 0 -13 -13 -13 -30 0 -32 -39
-68 -60 -55 -7 4 -18 -2 -26 -14 -8 -11 -24 -26 -36 -32 -19 -10 -20 -9 -15
11 8 29 -6 56 -32 63 -16 4 -26 -4 -43 -31 -12 -21 -37 -56 -56 -79 -18 -23
-31 -47 -28 -52 4 -5 1 -13 -5 -16 -5 -4 -8 -13 -5 -21 3 -8 0 -11 -10 -7 -16
6 -20 -12 -4 -22 6 -3 7 -17 4 -31 -9 -33 7 -30 28 6 10 18 25 30 38 30 12 0
18 -4 15 -10 -3 -5 -1 -10 4 -10 6 0 11 -6 11 -13 0 -20 37 -50 53 -44 9 3 14
-1 13 -11 -1 -14 8 -17 42 -17 33 0 48 -5 62 -22 l17 -22 23 24 c13 13 26 22
30 20 15 -9 28 21 54 125 29 119 77 352 73 357 -2 1 -30 -20 -63 -47z"/>
</g>
</svg>
